<?xml version="1.0" encoding="UTF-8"?>
<svg id="Layer_1" xmlns="http://www.w3.org/2000/svg" version="1.1" viewBox="0 0 874.57 274.76">
  <!-- Generator: Adobe Illustrator 29.5.0, SVG Export Plug-In . SVG Version: 2.1.0 Build 137)  -->
  <defs>
    <style>
      .st0 {
        fill: #ad4657;
      }

      .st1 {
        fill: #274650;
      }
    </style>
  </defs>
  <path class="st1" d="M529.07,38.76c2.7.84.69,6.98,2,9,14.78-15.59,41.2-14.66,53.01,3.99,17.83-22.62,55.7-20.18,62.25,10.77,2.46,11.65,2.9,54.63,1.3,66.79-.18,1.4-.23,2.59-1.45,3.55-1.74,1.37-21.53,1.28-25.11.9-5.02-.53-5.13-1.72-5.52-6.46-1.37-16.27,2.36-37.56-.02-52.98-2.21-14.31-24.33-13.26-25.97,5.9-1.37,15.97,1.12,33.82,0,50.01-.13,1.03-.55,1.98-1.38,2.62-1.61,1.26-21.8,1.38-25.14.95-1.7-.22-3.03-.37-3.96-2.04-2.14-16.92,1.17-35.78-.51-52.49-1.02-10.16-6.2-16.37-17.05-14.06-4.18.89-9.94,5.75-9.94,10.05v57c0,.11-1.39,1.5-1.5,1.5h-28c-.11,0-1.5-1.39-1.5-1.5V38.76c7.05,1.37,22.59-1.84,28.5,0Z"/>
  <path class="st1" d="M38.07,38.76c1.08.31,2.52,2.96,2.8,4.2l12.71,49.8,16.93-52.56c2.73-3.1,21.84-.79,26.9-1.26l16.67,54.84,16-55.01h29c1.38,0,1.98,3.78,1.07,5.04-11.91,26.49-17.2,59.39-28.51,85.52-.59,1.37-1.72,3.31-3.08,3.92-2.65,1.19-28.05.99-29.75-.72l-14.24-45.77c-2.11-.3-1.62-.1-2.23,1.26-3,6.71-11.29,42.61-14.17,44.83-1.92,1.48-28.23,1.51-30.19,0L7.53,41.26c-.1-.84,1.03-2.5,1.54-2.5,5.99,0,24.85-1.19,29,0Z"/>
  <path class="st1" d="M382.57,140.26v63.5l29.02-31.48c1.98-.9,25.21-1.01,28.53-.57,2.17.29,4.12.86,4.3,3.38-10.07,13.91-23.89,25.08-33.87,39.15,3.28,8.52,34.03,40.03,34.11,46.02.03,2.26-.37,3.07-2.59,3.5-2.92.56-28.47.33-30.48-.52-4.43-1.86-20.61-27.33-26.21-32.79-.88-.86-.82-2.19-2.81-1.69v34c-.98-.32-2.17,1-2.5,1h-27.5c.32-.98-1-2.17-1-2.5v-121c0-1.88,28.71-2.34,31,0Z"/>
  <path class="st1" d="M195.57,220.76c-.07-.98-.01-2.01,0-3,.78-64.05,102.54-64.14,102.08-.48-.45,62.7-97.79,65.05-102.08,3.48ZM243.33,197.02c-23.86,3.05-21.94,43.24,4.7,41.75,8.07-.45,15.9-6.55,17.3-14.76,2.64-15.5-4.87-29.18-22-27Z"/>
  <path class="st1" d="M188.56,94.75c.82,19.92,25.31,17.65,39.27,12.76,2.8-.98,7.26-4.64,9.73-3.32s9.5,15.29,9.07,18.03c-.56,3.5-12.71,8.69-16.28,9.81-42.37,13.23-83.34-12.57-71.49-59.49,13.83-54.77,98.83-45.3,90.76,17.76-.53,4.16-2.67,5.15-6.49,5.51-17.07,1.62-37.33-.8-54.57-1.07ZM222.57,76.76c-.79-22.83-33.15-22.27-35,0h35Z"/>
  <path class="st1" d="M686.57,94.76c2.33,17.51,23.03,18.47,36.8,14.3,4.62-1.4,8.5-4.94,13.55-5.2,2.62,3.69,9.71,15.23,8.5,19.2-1.67,5.49-22.75,11.19-28.36,11.69-38.56,3.43-64.03-14.99-60.52-55.52,4.6-53.07,86.4-58.61,91.91-3.84.32,3.15,1.2,19.38-2.38,19.38h-59.5ZM721.57,76.76c-1.27-22.75-32.9-22.29-35,0h35Z"/>
  <path class="st1" d="M378.27,102.07c1.53,1.26,11.32,16.71,11.28,18.21-.24,9.24-32.15,15.64-39.5,15.55-73.92-.88-62.76-112.16,12.74-97.8,5.56,1.06,26.42,8.34,25.81,15.15-.14,1.55-10.92,16.7-12.48,17.63-4.06,2.41-6.31-1.43-10.3-2.81-12.68-4.42-27.19-5.06-32.74,9.77-8.69,23.19,12.67,35.72,33.48,27.48,3.92-1.55,7.7-6.49,11.71-3.18Z"/>
  <path class="st0" d="M195.57,220.76c-7.13,4.77-16.19,10.34-22.47,16.03-2.13,1.93-5.56,4.47-5.6,7.43-.03,2.48,3.18,6.78,1.11,8.08-4.18,2.62-18.35-6.72-24.04-5.54v21.5c0,1.72-4,1.72-4,0v-21.5c-5.35-.78-20.03,8.04-24.04,5.54-2.35-1.47,2.4-6.48.54-10.52-2.25-4.87-19.58-15.33-24.06-19.96l-1.43-4.06c12.44-.5-.32-13.88,1.01-21,8.99-.57,18.37,9.71,19-5,5.43-.37,13.56,21.35,17.99,16.99,2.43-2.38-10.55-31.48-8.99-32.99,4.45-.57,8.48,6.32,13.01,3.52,2.72-1.68,6.76-21.33,11.46-15.49,2.87,3.57,3.75,17.28,10.79,15.82,2.82-.58,5.19-4.61,8.73-3.85,2.71,2.83-11.21,30.81-8.99,32.99,4.1,4.02,13.51-15.4,15.54-16.03,3.91-1.22,3.12,6.09,6.11,6.93,2.71.76,13.83-4.37,15.34-2.88.8,7.99-10.73,20.89,3,20.99-.01.99-.07,2.02,0,3Z"/>
  <path class="st0" d="M442.57,136.76c-.25.24-3.03-.16-3.99,0-.18-6.56,2.31-12.41-.09-18.92-2.41-2.04-20.61,7.1-22.94,5.47-3.26-2.28,2.27-6.76.53-10.53-2.43-5.25-27.19-20.74-26.51-23.51.39-1.56,5.79-1.42,5.95-4.97.13-2.88-6.54-15.87-4.95-17.54,4.51-.3,13.88,6.26,17.04,2.55,1.54-1.8,1.33-7.44,3.44-6.55,3.13,1.33,13.38,20.29,16.51,16.99,1.96-5.19-10.89-31.04-8.99-32.99,3.88-.62,6.75,3.8,9.99,4.6,6.1,1.5,8.06-19.36,13.47-17.59,1.83.6,6.36,16,7.68,16.83,3.74,2.35,11.11-5.65,12.85-3.84,1.41,5.91-10.85,28.27-8.51,32.01,1.5,1.82,1.68.94,3.03,0,4.16-2.88,9.14-13.69,12.13-14.89,3.8-1.52,2.96,5.9,6.01,6.76,2.63.75,14.55-4.73,15.34-3.89,1.64,4.62-4.88,14.88-3.89,18.34.81,2.83,9.36,2.32,4.25,7.51-4.27,4.33-24.87,16.94-25.37,21.67-.28,2.68,3.62,7.29,1.06,9.03-3.29,2.23-19.01-6.92-24.04-5.55-.51,2.69.68,18.34,0,19Z"/>
  <path class="st1" d="M535.57,171.76h18.5c.11,0,1.5,1.39,1.5,1.5v23c0,.11-1.39,1.5-1.5,1.5h-18c-.11,0-1.5,1.39-1.5,1.5v31c0,.45,1.53,4.39,1.96,5.04,5.04,7.52,17.49-.3,19.41,4.75.76,1.99-.37,2.61-.37,3.21v19.5c-14.19,1.25-35.38,4.59-45.52-7.98s-5.07-41.23-6.47-57.03c-3.55-.65-10.66,1.64-12.93-1.57-1.71-2.41-1.72-20.41,0-22.85,2.17-3.08,9.37-1,12.93-1.57.56-4.48-1.5-22.26,1.96-24.54,1.32-.87,26.13-.83,28.02.05.47.22,2.02,1.81,2.02,1.98v22.5Z"/>
  <path class="st1" d="M66.57,171.76h17.5c.18,0,2.5,2.32,2.5,2.5v22c0,.11-1.39,1.5-1.5,1.5h-18.5v35.5c0,.38,1.91,3.03,2.48,3.52,4.82,4.16,16.22.24,18.08,2.92.67.96.8,17.44.41,19.54-.28,1.49-1.67,3.42-3,4-2.4,1.06-19.84.88-23.51.56-34.7-2.99-23.59-40.49-25.6-64.4-1.46-4.46-12.8,2.44-13.91-6.09-.35-2.7-.31-17.8.54-19.55,1.71-3.52,10.08-1.49,13.5-2v-23.5c0-.7,1.67-1.35,2.5-1.5,2.78-.51,24.76-.29,26.48.51.47.22,2.02,1.81,2.02,1.98v22.5Z"/>
  <path class="st1" d="M262.27,5.96c2.21-.65,23.1-.7,25.8-.2,2.14.4,2.75,1.75,3.28,3.72l.27,119.82c-.02,2.47-1.13,3.96-3.57,4.43-3.17.6-21.77.6-24.94,0-2.02-.38-3.21-1.45-3.5-3.5l.47-122.48c.51-.86,1.23-1.51,2.21-1.79Z"/>
  <path class="st1" d="M335.84,138.76c1.02,0,1.92.7,2.15,1.69.29,1.22.53,2.44.63,3.76,2.86,36.33-2.28,76.36,0,113.09.46,1.46-1.42,6.45-2.55,6.45h-27c-.82,0-1.5-.67-1.5-1.5v-122c0-.83.68-1.5,1.5-1.5h26.77Z"/>
  <path class="st1" d="M451.57,171.76h28.5c.11,0,1.5,1.39,1.5,1.5v89c0,.11-1.39,1.5-1.5,1.5h-27c-.81,0-2.94-3.18-2.55-4.45,1.69-26.67-2.08-55.72,0-82.1.15-1.93.59-3.62,1.05-5.45Z"/>
  <path class="st1" d="M697.57,245.76v-22c2.45.29,7.95-1.14,8.86,1.64.71,2.15.64,29.4.19,32.91-.65,4.96-6.06,6.08-9.62,3.52-4.58-3.3-10.28-18.71-16.43-22.07v21.5c0,2.14-9,2.14-9,0v-36c0-1.9,7.17-2,8.99-.99,1.96,1.08,11.15,16.49,14.19,19.81.89.98.89,2.13,2.82,1.68Z"/>
  <path class="st1" d="M462.27,129.97c18.59-4.29,29.44,21.52,14,30.99-16.83,10.32-36.07-8.38-24.15-24.15,1.43-1.89,7.95-6.34,10.15-6.85Z"/>
  <path class="st1" d="M773.57,262.76c.32-.98-1-2.17-1-2.5v-34c0-.33,1.32-1.52,1-2.5h20.5c2.86,0,9.24,5.59,10.94,8.06,6.27,9.18,4.14,22.53-5.72,28.15-1.09.62-6.45,2.79-7.21,2.79h-18.5ZM781.57,231.76v23c11.77,1.9,21.09-3.74,17.03-16.55-2.47-7.79-10.3-6.51-17.03-6.45Z"/>
  <path class="st1" d="M844.41,223.92c1.51.94,12.89,29.67,13.68,32.82.88,3.53,1.26,5.91-3.02,6.11-6.56.3-5.22-5.97-8.16-6.94-1.31-.43-14.54-.4-15.18,0s-1.5,5.35-3.15,6.34c-2.23,1.35-9.05,1.15-7.85-2.77l13.92-34.15c.83-2.2,8.69-2.09,9.75-1.42ZM845.56,248.75l-5.5-13.97c-1.26.02-6.07,13.43-5.5,13.97h10.99Z"/>
  <path class="st1" d="M648.73,262.59c-.59-.36-1.44-4.77-2.65-5.84-1.53-1.36-13.75-1.52-15.85-.83-2.86.94-1.92,8.2-9.13,6.87-3.13-.58-2.82-2.48-2.07-5.05,2.02-7,8.76-21.82,12.07-28.95,2.89-6.23,5.37-6.38,11.98-4.03l13.03,33c2.96,4.94-4.79,6.44-7.37,4.84ZM638.55,234.76c-2.59-.47-1.54.36-2.08,1.41-.89,1.75-4.78,11.69-3.91,12.58h11s-5.01-13.99-5.01-13.99Z"/>
  <path class="st1" d="M758.55,261.72c-9.13,5.45-10.04-5.62-11.65-6-2.09-.5-14.46-.21-15.93.94-2.87,2.26-1.44,8.38-10.41,6.1-2.11-2.12,12.84-33.62,14.17-38.83,2.53-.16,7.65-.97,9.37.8l14.45,37ZM744.57,248.75c1.15-1.18-4.78-14.89-5.99-13.99-1.07,4.78-4.64,8.89-4.02,14h10.01Z"/>
  <path class="st1" d="M587.3,223c5.7-.96,11.88.4,16.28,4.24,2.57,2.24,4.32,3.64,1.52,6.56-4.83,5.02-8.03-3.63-14.77-2.85-14.75,1.7-13.02,26.3,2.61,24.77,3.26-.32,11.8-7.32,13.56-1.32,1.34,4.55-9.89,8.98-13.57,9.29-26.44,2.16-28.8-36.79-5.63-40.67Z"/>
</svg>