<?xml version="1.0" encoding="UTF-8"?>
<svg id="Layer_1" xmlns="http://www.w3.org/2000/svg" version="1.1" viewBox="0 0 142 36">
  <!-- Generator: Adobe Illustrator 29.5.0, SVG Export Plug-In . SVG Version: 2.1.0 Build 137)  -->
  <defs>
    <style>
      .st0 {
        fill: #8b1d41;
      }

      .st0, .st1 {
        fill-rule: evenodd;
      }

      .st1 {
        fill: #c41f3e;
      }
    </style>
  </defs>
  <g id="Logo-_x2F_-Colour-_x2F_-desktop-header-142x36">
    <g id="Group">
      <path id="Path" class="st1" d="M19.54,25.23c-1.17.91-2.63,1.38-4.11,1.33-4.24,0-7.05-3.24-7.05-8.39s2.78-8.43,7.05-8.43c1.39-.04,2.76.37,3.89,1.16l3.16-4.29c-1.97-1.31-3.9-2.12-7.64-2.12-8.14,0-12.77,5.49-12.77,13.69s4.85,13.64,12.77,13.64c5.06,0,7.02-1.73,7.92-2.35l-3.22-4.24Z"/>
      <path id="Path1" data-name="Path" class="st1" d="M76.91,25.19c-1.19.93-2.66,1.42-4.17,1.39-4.24,0-7.05-3.24-7.05-8.39s2.81-8.43,7.05-8.43c1.39-.04,2.75.37,3.89,1.16l3.16-4.29c-1.97-1.31-3.9-2.12-7.64-2.12-8.12,0-12.78,5.49-12.78,13.69s4.85,13.64,12.78,13.64c5.06,0,7.02-1.73,7.92-2.35l-3.16-4.3Z"/>
      <path id="Combined-Shape" class="st1" d="M46.73,4.97c5.83,0,8.91,2.34,8.91,6.76,0,3.2-2.08,4.84-4.09,5.66v.05c2.33.67,5.09,2.19,5.09,6.38,0,4.86-3.59,7.53-10.12,7.53h-9.28V4.97h9.48ZM45.94,19.89h-2.56v6.83h2.63c2.66,0,4.43-1.04,4.43-3.34,0-2.43-1.75-3.49-4.5-3.49ZM45.94,9.35h-2.56v6.12h2.4c2.32,0,3.99-.93,3.99-3.03,0-1.41-.86-3.09-3.84-3.09Z"/>
      <polygon id="Path2" data-name="Path" class="st1" points="25.49 31.35 31.6 31.35 31.6 4.97 25.49 4.97 25.49 31.35"/>
      <path id="Fill-3" class="st1" d="M108.55,4.39c-.55-.75-1.44-1.18-2.37-1.14h-9.83c.95-.04,1.84.4,2.39,1.18.99,1.32,10.14,13.74,10.14,13.74,0,0-9.14,12.42-10.14,13.75-.55.77-1.44,1.21-2.39,1.17h9.83c.93.04,1.82-.39,2.37-1.14l10.15-13.78-10.15-13.78Z"/>
      <path id="Fill-6" class="st0" d="M101.27,7.84h0c-1.25-1.68-2.23-3.02-2.53-3.41-.54-.77-1.44-1.21-2.39-1.18-.93-.04-1.82.39-2.37,1.14l-10.15,13.78,10.15,13.77c.55.75,1.44,1.18,2.37,1.14.94.04,1.84-.4,2.39-1.17l2.53-3.42-7.61-10.33,7.61-10.33Z"/>
    </g>
  </g>
</svg>