<?xml version="1.0" encoding="UTF-8"?>
<svg id="Layer_1" xmlns="http://www.w3.org/2000/svg" version="1.1" viewBox="0 0 135.52 45.67">
  <!-- Generator: Adobe Illustrator 29.5.0, SVG Export Plug-In . SVG Version: 2.1.0 Build 137)  -->
  <defs>
    <style>
      .st0 {
        fill: #ffdf01;
      }

      .st1 {
        fill: #fff;
      }

      .st2 {
        fill: none;
        stroke: #fff;
        stroke-width: 1px;
      }

      .st3 {
        fill: #0059b3;
      }
    </style>
  </defs>
  <path class="st3" d="M34.48,39.7c0,1.48-.61,2.33-1.79,2.79-4.59,1.77-10.03,2.68-15.2,2.68s-10.61-.91-15.2-2.68c-1.18-.45-1.79-1.31-1.79-2.79V.5h33.98v39.19"/>
  <path class="st2" d="M34.48,39.7c0,1.48-.61,2.33-1.79,2.79-4.59,1.77-10.03,2.68-15.2,2.68s-10.61-.91-15.2-2.68c-1.18-.45-1.79-1.31-1.79-2.79V.5h33.98v39.19Z"/>
  <path class="st0" d="M9.61,24.39c-4.7-2.94-6.26-4.24-6.39-6.16-.02-.39.07-1.05.23-1.52l-.44-.3c-.37.6-.57,1.29-.58,1.99,0,1.11.36,1.96.79,2.63.66,1.02,1.36,1.66,3.07,2.94,1.85,1.39,3.1,3,3.83,4.69h.26v-1.92c2.49,1.41,4.69,2.75,5.78,5.13h.26c-.42-2.47-1.82-4.37-6.81-7.48M23.42,17.97c-1.03.46-1.74,1.09-2.37,1.99l2.1-.11c.08-.93.2-1.55.27-1.88h0ZM31,25.47c.22-.52.35-1.07.39-1.63l-3.07-.17c-.12.76-.33,1.51-.61,2.22l3.3-.42ZM27.67,17.85c.22.59.39,1.17.51,1.72l1.81-.1c-.63-.72-1.42-1.28-2.31-1.62ZM26.85,19.64c-.21-.75-.5-1.47-.87-2.16-.12,0-.25-.01-.38-.01-.21,0-.42.03-.62.05-.3.75-.54,1.5-.74,2.26l2.6-.14ZM28.36,20.61c.1.77.11,1.49.06,2.16l2.96-.16c-.07-.66-.26-1.3-.55-1.89l-2.46-.11ZM27.35,22.82c-.03-.76-.12-1.53-.27-2.27l-2.98-.14c-.21.91-.34,1.8-.4,2.6l3.66-.19ZM27.81,16.44l.35-.49-.54-.72.09-.16,1.52.82-.33,1.01c.24.12.47.27.77.47l.98-1.62-2.55-1.33h-5.63l-4.57,2.75c.86.6,1.65,1.24,2.21,1.89,1.22-1.78,3.38-2.92,5.51-2.92.7,0,1.51.08,2.19.31ZM16.54,16.28l2.52-1.51c-.53-.27-1.1-.41-1.69-.41-.87-.01-2.34.39-3.05.49.32.22,1.44.94,2.22,1.43h0ZM17.06,10.58c-.9-.2-1.4-.09-1.91.4.25.12.57.19.92.16.5-.03.82-.34.99-.57ZM31.28,31.87h-.32c0-1.75-1.61-2.23-3.3-2.23h-5.27c.17.86.25,1.88.12,2.83h-.26c-.49-3.94-2.72-5.9-5.83-7.99v1.8h-.26c-.83-1.85-2.65-3.59-4.37-4.82l-1.4-1v1.94h-.26c-.73-1.92-2.06-3.35-3.95-5.06-2.04-1.84-2.87-2.94-3.34-4.2-.29-.77-.37-1.39-.38-2.23-.02-1.51.74-2.86,1.69-3.37v.73c-.47.62-.71,1.41-.71,2.21,0,.74.17,1.56.54,2.26,1.15,2.19,5.02,4.88,7.49,6.53,7.65,5.13,9.18,6.03,10.45,8.75.14.3.28.71.4,1.18,1.1-.17,5.11-.78,5.85-.9.14-.02.44-.06.59-.07.69-.44,1.23-.99,1.7-1.69l-2.93-.23c-.15.34-.3.62-.43.85h-.24c.08-.3.15-.59.21-.88l-.75-.06v-.16l.81-.1c.15-.83.23-1.61.24-2.35l-3.69-.21c-.02.38-.02.74-.01,1.07h-.24c-.08-.37-.14-.74-.19-1.09l-.81-.05v-.25l.77-.04c-.1-.89-.12-1.78-.08-2.67l-2.16-.1c.1.19.21.38.28.59.47,1.3.35,2.83.2,3.53h-.26c-.04-.81-.31-1.81-.57-2.42-.6-1.41-1.94-2.65-4.18-4.1v1.8h-.26c-.75-2.36-2.61-3.68-5.37-5.1-2.28-1.17-2.99-2.58-2.86-4.77l.77.46c.2,2.04,1.77,3.22,3.41,3.21.97,0,1.87-.14,2.75-.31,1.26-.26,2.43-.47,3.41-.13v-1.21h-.77c-.27.24-.83.51-1.65.52-.9.02-2.6-.5-2.6-2.4,0-1.65,1.4-1.92,2.54-1.92.61,0,1.62-.02,1.96-.04.25-.01.45-.05.57-.18.13-.13.17-.26.2-.43.04-.21.04-.42.04-.77v-1.21h-5.28v2.09l-2-.76v-.5h.96v-.83h-3.56v-1.74h-1.22c-.65,0-1.4.45-1.45,1.34-.05.85.33,1.56,1.2,1.56h.16v1.01h-.16c-1.52,0-2.67-1.14-2.67-2.66s1.35-2.79,2.98-2.79h2.58v1.74h10.01v2.57c0,.43-.02,1.01-.07,1.38-.03.27-.12.75-.63,1.13-.31.23-.76.33-1.51.33-.6,0-1.2-.03-1.81-.06-1.14-.07-1.46.37-1.51.78-.01.09,0,.17,0,.25.53-.41,1.29-.71,2.15-.44,1.51.48,1.94.52,2.73-.1l.08.18c-.08.13-.24.32-.46.49h.73v3.95l2.27-1.36h6.38l3.14,1.64c.39.21.54.45.61.82.05.31-.03.69-.18.94-.09.15-.83,1.35-1.21,2,1.17,1.27,1.81,2.92,1.82,4.64,0,1.66-.61,3.79-2.6,5.38.77.24,1.43.73,1.88,1.39l-.62,2.1"/>
  <path class="st3" d="M36.96,41.11h.16c.21,0,.29-.02.36-.08.06-.06.09-.15.09-.24,0-.15-.05-.25-.17-.29-.09-.02-.18-.04-.27-.03h-.17v.65ZM37.38,40.08c.42,0,.7.28.7.69,0,.36-.24.65-.53.66.04.04.07.06.1.1.14.17.57.92.57.92h-.56c-.09-.16-.13-.22-.22-.39-.24-.43-.31-.54-.4-.58-.02,0-.04-.02-.08-.02v.99h-.47v-2.38h.88ZM37.24,39.58c-.9,0-1.63.75-1.63,1.7s.72,1.71,1.63,1.71,1.63-.76,1.63-1.71-.73-1.7-1.63-1.7ZM37.24,43.41c-1.17,0-2.11-.94-2.11-2.11,0,0,0,0,0-.01,0-1.18.95-2.12,2.11-2.12s2.11.94,2.11,2.12c0,1.17-.93,2.12-2.1,2.12,0,0,0,0,0,0"/>
  <g>
    <path class="st3" d="M95.96,8.92c.19.02.68.21.88.29,1.86.82,1.84,3.29-.07,4.02l-.05.15c2.74.65,2.62,4.01.15,5.01-.24.1-.98.33-1.2.33h-4.5c-.1-2.59.14-5.28,0-7.86-.01-.27-.04-.69-.08-.95-.04-.34-.19-.64-.48-.83-.11-.07-.31-.03-.32-.16h5.66ZM93.08,13.01h1.64s.45-.1.53-.13c.98-.34,1.38-1.74.64-2.5-.19-.2-.76-.51-1.03-.51h-1.79v3.14ZM93.08,17.69h2.16c.06,0,.6-.27.69-.33.87-.61,1.14-2.11.33-2.88-.18-.17-.86-.51-1.1-.51h-2.08v3.73Z"/>
    <path class="st3" d="M53.35,8.92c2.43.29,3.35,2.91,1.68,4.68l-1.06.7,3.07,4.42h-2.3l-2.85-4.09h-1.28v4.09h-1.9v-8.81c0-.11-.22-.57-.32-.67l-.56-.32h5.52ZM50.72,9.87l-.11.11v3.51l.11.11h1.68s.4-.14.48-.18c1.26-.59,1.43-2.67.17-3.32-.1-.05-.58-.23-.64-.23h-1.68Z"/>
    <path class="st3" d="M107.91,24.41v11.11c-.43.09-.78-.24-1.2-.21-.36.02-.88.31-1.29.4-2,.45-3.89-.56-4.34-2.61-.73-3.29,1.7-5.86,5-4.96v-3.62l.11-.11h1.72ZM106.09,29.16c-2.69-.8-3.79,1.8-3.07,4.06.46,1.46,1.8,2.01,3.07,1.09v-5.15Z"/>
    <path class="st3" d="M119.83,14.62c1.06-.98,2.1-2.02,2.81-3.29h2.01l-3.07,3.11,3.58,4.28h-2.27l-3.07-3.58v3.58h-1.75V7.6h1.64l.11.11v6.91Z"/>
    <path class="st3" d="M107.11,11.18v7.53c-.33.09-.58-.15-.86-.2-.65-.11-1.66.51-2.47.5-4.91-.04-4.62-8.43.79-7.89.42.04.92.28,1.32.29s.8-.23,1.21-.22ZM103.73,12.22c-2.65.45-1.89,7.63,1.56,5.21l.07-4.75c-.09-.49-1.24-.53-1.63-.46Z"/>
    <path class="st3" d="M81.75,27.99v7.53c-.39.09-.75-.23-1.12-.21-.34.02-.89.31-1.29.4-5.85,1.24-5.89-8.72.23-7.69.3.05.75.24.98.25.32,0,.85-.23,1.19-.27ZM78.44,29.04c-2.25.38-2.22,5.74.27,5.74.26,0,1.19-.28,1.27-.55l-.02-4.85c-.38-.34-1.02-.43-1.52-.35Z"/>
    <path class="st3" d="M116.61,27.99v7.53c-.4.1-.76-.22-1.13-.21-.44.01-1.14.42-1.71.48-5.51.62-5.26-8.83.66-7.78.27.05.76.26.97.26.31,0,.87-.25,1.21-.28ZM113.3,29.04c-2.47.42-2.2,6.66.92,5.59.16-.06.58-.24.62-.4l-.02-4.85c-.38-.34-1.02-.43-1.52-.35Z"/>
    <path class="st3" d="M99.07,27.99v7.53c-.4.1-.76-.22-1.13-.21s-.89.31-1.28.4c-5.86,1.27-5.92-8.74.23-7.69.27.05.69.24.91.25.37.02.89-.26,1.27-.27ZM95.76,29.04c-2.5.43-2.2,6.66.92,5.59.16-.06.58-.24.62-.4l-.02-4.85c-.38-.34-1.02-.43-1.52-.35Z"/>
    <path class="st3" d="M80.87,11.18v7.53c-.32.08-.54-.13-.8-.19-.58-.13-1.12.26-1.68.37-5.57,1.15-5.87-8.32-.05-7.78.42.04.95.28,1.32.29s.81-.21,1.21-.23ZM77.49,12.22c-1.9.39-2.02,4.3-.64,5.36.68.52,1.75.43,2.27-.22v-4.75c-.07-.4-1.29-.45-1.63-.39Z"/>
    <path class="st3" d="M90.45,35.52h-1.75v-4.86c0-.18-.16-.66-.26-.84-.51-.94-1.76-.73-2.59-.37v6.07h-1.83l.07-7.35c.29-.14.55.12.79.17.82.16,1.87-.53,2.97-.41,1.21.12,2.6,1.22,2.6,2.51v5.08Z"/>
    <path class="st3" d="M51.1,28.01c5.39-.73,5.82,7.49.93,7.8s-5.26-7.22-.93-7.8ZM51.32,29.03c-2.04.42-2.01,6.16.71,5.75,2.24-.33,2.24-6.36-.71-5.75Z"/>
    <path class="st3" d="M61.19,11.13c5.06-.32,5.23,7.84.27,7.88s-5.08-7.58-.27-7.88ZM61.19,12.15c-2.17.35-2.25,5.24-.11,5.78,2.45.62,3.01-4.75.91-5.66-.28-.12-.49-.17-.8-.12Z"/>
    <path class="st3" d="M115.81,18.71h-1.75v-4.79c0-.13-.16-.72-.23-.86-.49-1.03-1.84-.81-2.69-.41v6.07h-1.75v-7.38c.42-.1.74.22,1.13.22.57,0,1.22-.39,1.83-.44,1.65-.15,3.47.82,3.47,2.67v4.93Z"/>
    <path class="st3" d="M73.49,35.12c-.49.36-1.2.54-1.8.61-3.64.46-6.31-1.58-6.17-5.37.16-4.44,4.44-5.93,8.12-4.27l-.59,1.39c-.36-.15-.55-.51-.93-.72-1.1-.61-2.42-.49-3.35.35-1.32,1.2-1.48,3.84-.89,5.43.87,2.36,3.7,3.06,5.61,1.44v1.13Z"/>
    <path class="st3" d="M67.86,11.33l2.19,5.34c.68-1.72,1.32-3.48,1.54-5.34h1.68l-3.28,8.09c-.57,1.16-1.12,2.37-2.02,3.31-.1-.2-1.33-1-1.21-1.17.09,0,.16-.05.22-.11.52-.5,2.09-2.07,2.04-2.78l-3.14-7.35h1.97Z"/>
    <path class="st3" d="M57.33,35.52v-7.93c.1-.85.11-1.63.66-2.33,1.04-1.33,2.69-1.16,4.16-.77.08.09-.38,1.3-.47,1.31-.88-.47-1.99-.97-2.41.3-.07.2-.18.79-.18.98v1.06h2.05c-.05.35.12.82-.11,1.1h-1.94v6.29h-1.75Z"/>
    <rect class="st3" x="83.21" y="7.6" width="1.75" height="11.11"/>
  </g>
  <g>
    <path class="st1" d="M19.52,36.41c.86-.14,1.68-.81,1.68-1.81,0-.91-.39-1.91-3.06-1.91h-4.51v.07c.14.04.35.15.49.29.31.3.41.75.42,1.34v6.76h3.74c2.06,0,3.55-.78,3.55-2.58,0-1.46-1.14-2.08-2.3-2.16ZM16.48,33.5h1.11c.96,0,1.61.21,1.61,1.23,0,1.09-.87,1.39-1.86,1.39h-.85v-2.62ZM17.69,40.36h0s-1.21,0-1.21,0v-3.45h1.15c1.58,0,2.19.47,2.19,1.66,0,1.28-.79,1.8-2.14,1.8Z"/>
    <path class="st1" d="M11.79,34.92c0-1.46-.87-2.23-3.15-2.23H3.93v.07c.17.06.37.17.49.3.33.32.43.82.43,1.49v6.6h1.96v-3.75h.71l2.76,3.75h2.44l-3.11-3.98c1.25-.33,2.18-1.02,2.18-2.26ZM7.85,36.64h-1.04v-3.14h1.32c1.1,0,1.67.32,1.67,1.49,0,1.04-.75,1.65-1.95,1.65Z"/>
    <path class="st1" d="M28.71,40.32c-1.26,0-3.11-.57-3.15-3.38-.04-2.59,1.09-3.44,2.61-3.44.84,0,1.27.2,1.55.36.52.3.68.68.68.69.03.03.08.02.08.02l.42-1.45s-.76-.55-2.58-.55c-2.75,0-4.81,1.39-4.81,4.42,0,3.42,2.45,4.3,4.62,4.3,2.01,0,2.8-.64,2.8-.64v-.99s-.71.66-2.23.66Z"/>
  </g>
</svg>