<?xml version="1.0" encoding="UTF-8"?>
<svg id="Layer_1" xmlns="http://www.w3.org/2000/svg" version="1.1" viewBox="0 0 2500 599.99">
  <!-- Generator: Adobe Illustrator 29.5.0, SVG Export Plug-In . SVG Version: 2.1.0 Build 137)  -->
  <defs>
    <style>
      .st0 {
        fill: #fff;
      }

      .st0, .st1, .st2 {
        fill-rule: evenodd;
      }

      .st1 {
        fill: #6cb35d;
      }

      .st2 {
        fill: #0d422c;
      }
    </style>
  </defs>
  <path class="st0" d="M0,0h2500v599.99H0V0Z"/>
  <path class="st0" d="M50.5,501.06h455.07V98.92H50.5v402.14Z"/>
  <path class="st1" d="M36.76,518.72h490.4V81.28H36.76v437.43h0ZM358.46,424.56h-113.77v-205.97h56.89v170.67h54.91c39.23,0,54.93-27.46,54.93-94.16s-19.62-88.27-56.89-88.27h-125.53v217.75h-56.89v-217.75h-84.34v-37.28h284.43c68.65,0,100.04,35.3,100.04,123.58.01,117.71-49.04,131.44-113.77,131.44h0Z"/>
  <path class="st2" d="M848.86,338.25c-13.73,3.9-31.39,7.83-49.04,7.83-56.89,0-102.01-31.39-102.01-92.19s47.08-86.3,102.01-86.3c19.61,0,29.43,1.96,47.08,3.92v47.07c-9.81-3.92-21.58-7.83-33.35-7.83-27.46,0-49.04,15.69-49.04,43.15,0,31.39,19.61,45.12,47.08,45.12,13.74,0,23.53-1.97,37.26-5.89v45.12ZM946.94,289.2c0,11.76-5.89,23.54-19.62,23.54-9.81,0-13.73-3.93-13.73-11.78,0-13.72,13.73-15.68,27.46-15.68h5.89v3.92h.01ZM870.44,253.9c13.73-5.89,29.43-9.81,43.15-9.81,15.69,0,33.35,1.96,33.35,17.65-5.89,0-15.69-1.96-23.54-1.96-31.39,0-66.7,7.83-66.7,47.08,0,27.46,23.54,39.21,47.08,39.21,17.65,0,33.35-7.83,41.19-21.56h1.96v17.63h56.89v-78.44c0-47.08-43.15-52.96-78.45-52.96-23.54,0-35.32,1.96-54.93,7.83v35.32h.01ZM1023.44,214.67h58.84v21.58h1.96c5.89-17.65,23.54-25.5,41.19-25.5,33.35,0,45.11,17.65,45.11,43.15v88.26h-62.76v-74.54c0-5.89,0-17.65-9.81-17.65-11.76,0-11.76,11.78-11.76,17.65v74.54h-62.77v-127.49h0ZM1276.48,289.2c0,11.76-5.88,23.54-19.61,23.54-9.81,0-13.73-3.93-13.73-11.78,0-13.72,13.73-15.68,27.47-15.68h5.88v3.92h0ZM1199.98,253.9c13.73-5.89,29.43-9.81,43.16-9.81,15.68,0,33.35,1.96,33.35,17.65-5.88,0-15.68-1.96-23.54-1.96-31.39,0-66.69,7.83-66.69,47.08,0,27.46,23.53,39.21,47.07,39.21,17.65,0,33.36-7.83,41.18-21.56h1.97v17.63h56.9v-78.44c0-47.08-43.16-52.96-78.47-52.96-23.54,0-35.32,1.96-54.93,7.83v35.32ZM1443.21,277.44c0,11.78-1.95,25.51-15.68,25.51s-15.71-13.73-15.71-27.47,1.95-25.5,15.71-25.5c13.73-.01,15.68,11.76,15.68,27.46ZM1504.04,342.16v-184.38h-62.77v72.59c-9.83-13.73-21.58-19.62-39.23-19.62-39.23,0-54.91,29.43-54.91,64.73,0,37.28,15.68,70.61,56.87,70.61,19.64,0,33.36-7.83,41.19-27.46h1.97v23.53h56.89ZM1609.95,289.2c0,11.76-5.88,23.54-17.65,23.54-9.81,0-15.68-3.93-15.68-11.78,0-13.72,15.68-15.68,27.46-15.68h5.88v3.92h0ZM1535.4,253.9c11.78-5.89,27.48-9.81,43.16-9.81s31.39,1.96,31.39,17.65c-3.93,0-13.73-1.96-23.53-1.96-31.39,0-66.7,7.83-66.7,47.08,0,27.46,23.53,39.21,47.07,39.21,17.65,0,33.36-7.83,43.16-21.56v17.63h56.9v-78.44c0-47.08-43.16-52.96-78.48-52.96-23.53,0-35.32,1.96-52.97,7.83v35.32h0ZM1923.81,222.51h-47.09v121.62h-66.66v-121.62h-56.9v-51h170.66v51h0ZM1990.51,214.67v29.43c7.83-17.65,19.61-33.35,39.21-33.35,3.93,0,7.85,1.96,11.78,1.96v51c-3.93,0-9.81-1.96-15.68-1.96-15.71,0-31.39,15.69-31.39,35.3v47.09h-62.77v-129.46h58.86ZM2202.36,344.13h-58.84v-23.53h-1.97c-5.88,19.61-23.53,25.49-41.19,25.49-33.33,0-45.12-17.65-45.12-41.19v-90.23h62.77v74.55c0,7.83,0,17.66,9.81,17.66,11.78,0,11.78-9.83,11.78-17.66v-74.55h62.77v129.46h0ZM2220.01,302.94c11.75,5.88,31.39,11.75,47.07,11.75,9.81,0,21.58-1.95,21.58-9.81,0-15.68-70.62,0-70.62-49.04,0-37.28,41.19-45.12,70.62-45.12,15.71,0,31.39,3.92,47.07,5.89v35.3c-13.74-3.92-25.49-7.85-41.19-7.85-9.81,0-19.61,1.96-19.61,9.81,0,11.76,70.62-1.96,70.62,45.12,0,37.26-41.19,47.07-70.62,47.07-17.65,0-37.26-1.95-54.91-7.83v-35.29h0ZM2373.01,214.67v-29.43l60.8-19.61v49.04h29.44v37.28h-29.44v35.32c0,11.78,5.88,17.65,13.74,17.65,5.9,0,11.78,0,15.71-1.95v37.26c-14.03,4.01-28.57,5.99-43.16,5.88-31.39,0-47.07-15.68-47.07-49.04v-45.11h-23.55v-37.28h23.54s0-.01,0-.01Z"/>
</svg>