<?xml version="1.0" encoding="UTF-8"?>
<svg width="210px" height="98px" viewBox="0 0 210 98" version="1.1" xmlns="http://www.w3.org/2000/svg" xmlns:xlink="http://www.w3.org/1999/xlink">
    <title>chatr-logo-en</title>
    <g id="Foundations" stroke="none" stroke-width="1" fill="none" fill-rule="evenodd">
        <g id="Logo" transform="translate(-96.000000, -340.000000)">
            <g id="English" transform="translate(96.000000, 300.000000)">
                <g id="chatr-logo-en" transform="translate(0.000000, 40.000000)">
                    <path d="M122.501078,12 C137.536051,12 149.753471,24.0673071 149.996316,39.0436723 L150,39.4983825 L150,66.9902951 L141.946144,58.9427507 C136.969768,63.9203019 130.095577,67 122.501078,67 C107.312081,67 95,54.6876777 95,39.4983825 C95,24.3123223 107.312081,12 122.501078,12 Z M54.5005714,0 L54.5005714,16.7469469 C57.737203,13.6937856 62.3623399,11.902136 67.1438979,11.902136 C81.4999821,11.902136 88.8521853,19.5729532 88.9977937,34.7025321 L89,35.1632871 L89,66 L78.4994286,66 L78.4994286,35.1632871 C78.4994286,26.4765995 74.4635494,22.0721276 66.5010714,22.0721276 C59.7588137,22.0721276 54.6526303,27.5348782 54.5039066,34.8351914 L54.5005714,35.1632871 L54.5005714,66 L44,66 L44,0 L54.5005714,0 Z M167.211309,0 L167.211309,12.98405 L179,12.98405 L179,23.1540416 L167.211309,23.1540416 L167.211309,49.8794813 C167.211309,54.1301267 168.865311,55.7643933 173.292173,55.8280637 L173.566679,55.8300084 L179,55.8300084 L179,66 L172.317484,66 C162.977921,66 157.138537,59.5219428 157.002432,49.0645422 L157,48.6893759 L157,0 L167.211309,0 Z M210,12 L210,22.1522678 C201.364879,22.1522678 196.417129,27.0968651 196.284983,35.894391 L196.282267,36.2580994 L196.282267,66 L186,66 L186,36.4740821 C186,21.7555832 194.792104,12.1926643 208.441153,12.0028777 L208.856243,12 L210,12 Z M206.320346,61 L207.5,64.5790371 L208.687525,61 L210,61 L210,66 L209.150925,66 L209.150925,61.966127 L207.874852,66 L207.136954,66 L205.847107,61.966127 L205.847107,66 L205,66 L205,61 L206.320346,61 Z M203,61 L203,61.8340435 L201.465767,61.8340435 L201.465767,66 L200.532234,66 L200.532234,61.8340435 L199,61.8340435 L199,61 L203,61 Z M35.4727059,13.0190188 L35.4727059,23.1746342 L27.7422353,23.1746342 C19.3235294,23.1746342 10.8010588,28.7796696 10.8010588,39.4884419 C10.8010588,50.0748293 19.1264847,55.6733704 27.448531,55.8021376 L27.7422353,55.8044104 L35.4727059,55.8044104 L35.4727059,65.9600258 L26.0491765,65.9600258 C19.7417647,65.9600258 13.3411765,63.4589354 8.49176471,59.0995835 C4.61752941,55.6185842 6.13908924e-12,49.3869258 6.13908924e-12,39.4884419 C6.13908924e-12,29.5921188 4.61752941,23.3626212 8.49176471,19.8794612 C13.2199412,15.6280299 19.4227048,13.1451816 25.5759716,13.0236964 L26.0491765,13.0190188 L35.4727059,13.0190188 Z M122.501078,22.1481227 C112.920343,22.1481227 105.149002,29.9174591 105.149002,39.4994608 C105.149002,49.0825409 112.920343,56.8518773 122.501078,56.8518773 C127.147852,56.8518773 131.365728,55.0257303 134.480218,52.0518696 L134.768949,51.7697285 L139.853155,56.8518773 L139.853155,39.5005392 L139.850998,39.5037741 C139.850998,29.9174591 132.083971,22.1481227 122.501078,22.1481227 Z" id="Combined-Shape" fill="#4E2B79"></path>
                    <path d="M14.826178,76 L17.5298429,93.3169819 L20.2324607,76 L24,76 L24,98 L21.6303665,98 L21.6303665,79.802108 L18.7141361,98 L16.2240838,98 L13.3078534,79.802108 L13.3078534,98 L11,98 L11,76 L14.826178,76 Z M34.9664765,76 C37.6658345,76 39,77.3283943 39,80.0160759 L39,80.0160759 L39,93.9828588 C39,96.6716057 37.6658345,98 34.9664765,98 L34.9664765,98 L34.0356633,98 C31.3352354,98 30,96.6716057 30,93.9828588 L30,93.9828588 L30,80.0160759 C30,77.3283943 31.3352354,76 34.0356633,76 L34.0356633,76 Z M49.7260325,76 C52.5444624,76 53.936376,77.3511623 53.936376,80.0849094 L53.936376,80.0849094 L53.936376,83.322498 C53.936376,85.2706856 53.255488,86.2772853 51.9606846,86.7475374 C53.2889743,87.251379 54,88.2568952 54,90.2061663 L54,90.2061663 L54,93.9150906 C54,96.6488377 52.6080863,98 49.7918889,98 L49.7918889,98 L45,98 L45,76 Z M63,76 L63,98 L61,98 L61,76 L63,76 Z M71.6417886,76 L71.6417886,95.6747439 L76,95.6747439 L76,98 L69,98 L69,76 L71.6417886,76 Z M88.9358596,76 L88.9358596,78.3252561 L84.5221308,78.3252561 L84.5221308,85.6163318 L88.7793136,85.6163318 L88.7793136,87.911249 L84.5221308,87.911249 L84.5221308,95.6747439 L89,95.6747439 L89,98 L82,98 L82,76 L88.9358596,76 Z M34.8733951,78.2551811 L34.1276748,78.2551811 C33.0117689,78.2551811 32.4832382,78.7803603 32.4832382,79.8925044 L32.4832382,79.8925044 L32.4832382,94.1074956 C32.4832382,95.2196397 33.0117689,95.7448189 34.1276748,95.7448189 L34.1276748,95.7448189 L34.8733951,95.7448189 C35.9903709,95.7448189 36.5178317,95.2196397 36.5178317,94.1074956 L36.5178317,94.1074956 L36.5178317,79.8925044 C36.5178317,78.7803603 35.9903709,78.2551811 34.8733951,78.2551811 L34.8733951,78.2551811 Z M49.531812,87.8798266 L47.5572368,87.8798266 L47.5572368,95.7365051 L49.7260325,95.7365051 C50.8924718,95.7365051 51.4427632,95.2023247 51.4427632,94.071119 L51.4427632,94.071119 L51.4427632,89.733747 C51.4427632,88.4768519 50.8277316,87.8798266 49.531812,87.8798266 L49.531812,87.8798266 Z M49.6624085,78.2613278 L47.5572368,78.2613278 L47.5572368,85.6488377 L49.468188,85.6488377 C50.7629914,85.6488377 51.3780231,85.0507289 51.3780231,83.7938337 L51.3780231,83.7938337 L51.3780231,79.9277975 C51.3780231,78.7965918 50.8277316,78.2613278 49.6624085,78.2613278 L49.6624085,78.2613278 Z" id="Combined-Shape" fill="#EC9234"></path>
                </g>
            </g>
        </g>
    </g>
</svg>