<?xml version="1.0" encoding="UTF-8"?>
<svg id="Layer_1" xmlns="http://www.w3.org/2000/svg" version="1.1" viewBox="0 0 115 44">
  <!-- Generator: Adobe Illustrator 29.5.0, SVG Export Plug-In . SVG Version: 2.1.0 Build 137)  -->
  <defs>
    <style>
      .st0 {
        fill: #394056;
        fill-rule: evenodd;
      }
    </style>
  </defs>
  <path class="st0" d="M94.33,8.26c.6.5.91,1.18.91,2.04,0,.51-.08,1.01-.24,1.5l-3.09,10.17c-.06.23-.1.47-.1.71-.01.24.05.49.17.7.13.19.29.36.47.49.12.12.24.25.34.39.03.06.06.12.06.19,0,.07,0,.14-.03.2-.06.15-.15.29-.27.4s-.25.2-.41.25c-.34.14-.85.2-1.55.2h-7.66c-.58,0-1.01-.1-1.28-.29-.13-.08-.22-.19-.28-.33-.05-.14-.05-.29,0-.43.09-.27.33-.51.71-.71.32-.16.6-.38.84-.65.22-.25.42-.65.57-1.19l2.93-9.83c.06-.16.09-.34.1-.51.01-.21-.05-.42-.17-.6-.15-.18-.32-.33-.5-.46-.18-.13-.34-.29-.47-.48-.05-.08-.07-.17-.08-.27,0-.09,0-.19.04-.28.13-.52.84-.98,2.12-1.38,1.3-.4,2.65-.6,4-.6,1.3,0,2.26.25,2.86.75ZM95.91.87c.28.27.51.6.66.97.15.37.22.76.22,1.16,0,.61-.16,1.2-.45,1.73-.3.56-.74,1.04-1.28,1.38-.55.35-1.18.53-1.83.52-.4.01-.79-.06-1.16-.21-.37-.15-.7-.37-.98-.66-.28-.28-.5-.62-.66-.99-.15-.37-.23-.77-.23-1.17,0-.59.16-1.17.44-1.68.29-.56.72-1.03,1.24-1.38.55-.37,1.19-.56,1.85-.54.4-.01.8.06,1.18.21.38.15.72.37,1.01.66ZM69.36,9.18c1,1.2,1.5,2.79,1.5,4.76,0,1.01-.12,2.02-.37,2.99-.72,2.92-1.95,5.13-3.68,6.63-1.66,1.47-3.8,2.27-6,2.24-1.28,0-2.38-.22-3.31-.66-.9-.42-1.67-1.07-2.24-1.89l-1.21,1.05c-.41.37-.88.67-1.38.9-.49.2-1.02.3-1.55.29h-1.48c-.56,0-.99-.12-1.3-.36-.3-.24-.46-.58-.45-1.04,0-.24.04-.48.1-.71l5.62-18.46c.06-.16.09-.34.1-.51,0-.39-.24-.75-.71-1.09-.17-.15-.33-.31-.47-.49-.05-.07-.07-.16-.08-.24,0-.09,0-.17.04-.25.16-.52.87-.98,2.14-1.38,1.29-.4,2.63-.6,3.98-.6,1.3,0,2.26.26,2.88.77.62.51.93,1.2.92,2.06,0,.49-.08.97-.23,1.43l-1.42,4.63c.61-.6,1.33-1.08,2.12-1.4.79-.32,1.64-.48,2.49-.47,1.66,0,2.99.6,3.99,1.8ZM62.25,12.99c0-1.04-.3-1.56-.91-1.56-.54,0-1.04.28-1.51.85l-2.19,7.21-.2.65c-.11.34-.17.69-.17,1.05,0,.79.37,1.19,1.11,1.19.54,0,1.05-.4,1.55-1.19.49-.79,1.04-2.28,1.65-4.46.45-1.54.67-2.78.67-3.73ZM24.46,4.42c1.29,1.04,1.94,2.43,1.94,4.15,0,.72-.11,1.45-.3,2.14-.63,2.27-1.87,3.95-3.72,5.03-1.85,1.09-4.19,1.63-7.02,1.63h-3.46l-1.14,4.11c-.05.18-.07.36-.07.54-.01.28.06.55.22.79.2.26.42.5.66.71.18.16.35.33.5.51.09.12.13.26.13.41,0,.18-.04.35-.14.5-.1.15-.24.26-.4.32-.36.16-.88.24-1.58.24H1.65c-.58,0-1.02-.11-1.31-.32-.29-.22-.39-.52-.3-.9.04-.19.12-.36.25-.49.17-.16.36-.3.55-.42.34-.19.64-.43.91-.71.22-.25.4-.63.54-1.16L6.39,6.83c.08-.28.13-.56.13-.85,0-.22-.03-.43-.12-.63-.1-.2-.2-.4-.32-.6-.2-.3-.3-.53-.3-.71,0-.13.03-.25.07-.37.04-.14.12-.28.22-.39.1-.11.23-.19.37-.24.3-.12.77-.19,1.4-.19h11.13c2.38,0,4.22.53,5.5,1.57ZM18.46,7.89c0-1.31-.61-1.97-1.82-1.97h-1.51l-2.39,8.4h1.48c.94,0,1.71-.3,2.3-.9s1.12-1.71,1.56-3.32c.23-.72.35-1.46.37-2.22ZM42.66,44c1.1,0,1.95-.4,2.54-1.2.6-.8.9-2.16.9-4.07,0-1.92-.3-3.28-.9-4.08-.6-.8-1.45-1.2-2.54-1.2-.72,0-1.33.15-1.82.46-.49.31-.89.86-1.19,1.66-.3.8-.46,1.85-.46,3.16,0,1.9.3,3.26.91,4.06.6.81,1.45,1.21,2.55,1.21ZM43.98,38.72c0,2.31-.44,3.47-1.32,3.47-.89,0-1.33-1.16-1.34-3.47,0-2.31.44-3.47,1.34-3.47.88,0,1.32,1.15,1.32,3.47ZM26.48,33.6v10.25h2.12v-5.54l1.37,3.28h.75l1.31-3.32v5.58h2.12v-10.25h-1.91l-1.92,4.57-1.86-4.57h-1.97ZM51.16,43.85v-10.25h2.95c1.01,0,1.78.21,2.3.64.52.43.78,1.03.78,1.82,0,.95-.42,1.75-1.27,2.41.86.9,1.29,1.86,1.29,2.86,0,.75-.24,1.36-.73,1.83-.49.46-1.22.69-2.2.69h-3.11ZM53.28,37.92c.62-.2,1.08-.43,1.37-.68.14-.12.26-.27.33-.45.08-.17.11-.36.11-.55,0-.56-.33-.84-.98-.84h-.83v2.52ZM53.28,42.04h.83c.66,0,1-.33,1-1,0-.48-.28-1.04-.83-1.66-.32.14-.66.26-.99.35v2.31ZM62.43,33.6v10.25h2.12v-10.25h-2.12ZM70.21,43.85v-10.25h2.12v8.44h2.85v1.81h-4.97ZM80.02,33.6v10.25h4.98s0-1.8,0-1.8h-2.85v-2.49h2.2v-1.81h-2.2v-2.34h2.85v-1.81h-4.98ZM45.06,21.22c0-.14.03-.28.07-.41l2.71-9.01c.16-.49.25-1.01.27-1.53.01-.38-.06-.77-.22-1.12-.16-.35-.4-.65-.7-.89-.62-.5-1.58-.75-2.88-.75-1.36,0-2.7.2-4,.6-1.28.39-1.97.85-2.09,1.38-.03.09-.05.18-.04.28,0,.09.03.19.08.27.13.18.29.34.47.48.17.13.33.29.47.46.12.17.18.38.17.6,0,.17-.04.35-.1.51l-2.05,6.84c-.27.59-.54,1.01-.81,1.26-.29.25-.66.39-1.04.37-.26.01-.51-.07-.71-.24-.09-.09-.17-.2-.21-.33-.05-.12-.07-.26-.06-.39,0-.24.05-.49.13-.71l2.12-7.08c.16-.48.24-.99.24-1.5,0-.86-.3-1.54-.91-2.04-.6-.5-1.56-.75-2.85-.75-1.36,0-2.71.2-4,.6-1.28.39-1.98.85-2.12,1.38-.03.09-.05.18-.04.28,0,.09.03.19.08.27.13.18.29.34.47.48.19.13.36.28.51.46.12.17.18.38.17.6,0,.17-.04.35-.1.51l-2.15,7.11c-.22.64-.33,1.3-.34,1.97,0,1.4.53,2.5,1.6,3.28,1.07.78,2.38,1.17,3.95,1.17,1.03,0,2.05-.24,2.98-.7,1.02-.5,1.93-1.2,2.67-2.06.22.88.76,1.64,1.51,2.14.78.54,1.84.82,3.16.82.99.01,1.96-.19,2.86-.61.85-.41,1.51-.92,1.98-1.55s.69-1.25.67-1.89c0-.18-.04-.36-.12-.52-.08-.15-.17-.22-.29-.22-.07,0-.2.12-.39.36-.08.11-.18.2-.3.26-.12.06-.25.1-.39.1-.06,0-.12,0-.17-.03-.06-.02-.1-.06-.14-.1-.08-.11-.13-.24-.12-.37ZM84.84,3.16c0-.86-.31-1.54-.92-2.04-.62-.5-1.58-.75-2.88-.75-1.35,0-2.7.19-4,.58-1.28.38-1.99.84-2.12,1.36-.04.09-.05.18-.04.28,0,.09.04.19.09.27.14.18.31.34.49.48.18.14.35.3.49.48.13.18.19.39.18.61,0,.17-.04.35-.1.51l-5.11,16.97c-.16.54-.35.94-.57,1.19-.24.26-.53.48-.84.65-.38.2-.62.44-.71.71-.05.14-.05.29,0,.43.05.14.15.26.27.33.27.19.7.29,1.28.29h7.66c.69,0,1.21-.07,1.55-.2.15-.05.29-.14.41-.25.12-.11.21-.25.27-.4.02-.06.03-.13.03-.2,0-.07-.03-.13-.06-.19-.1-.14-.21-.27-.34-.39-.18-.14-.34-.3-.47-.49-.12-.21-.18-.45-.17-.7,0-.24.04-.48.1-.71l5.28-17.34c.16-.47.24-.96.24-1.46ZM113.14,9.57c-.57-.69-1.37-1.24-2.4-1.63-1.03-.4-2.23-.6-3.6-.6-2.85,0-5.31.71-7.38,2.14-2.07,1.43-3.41,3.55-4.02,6.36-.17.77-.26,1.56-.27,2.35,0,1.5.34,2.81,1.03,3.93.69,1.13,1.7,2.03,2.89,2.58,1.24.6,2.67.9,4.29.9,1.45.02,2.89-.3,4.19-.94,1.24-.62,2.22-1.4,2.92-2.31.71-.92,1.05-1.8,1.03-2.64.01-.12-.01-.25-.07-.36-.04-.03-.08-.06-.12-.07-.05-.01-.1-.02-.14-.01-.2,0-.53.11-.98.34-.51.24-1.04.44-1.58.59-.6.16-1.23.23-1.85.22-1.26,0-2.22-.32-2.89-.95-.67-.64-1.01-1.57-1.01-2.79,0-.62.07-1.23.2-1.84.25-1.2.73-2.17,1.46-2.91.69-.71,1.55-1.22,2.5-1.48-.13.47-.2.95-.2,1.43,0,.95.3,1.71.91,2.26.6.56,1.44.83,2.52.83,1.05,0,1.89-.29,2.5-.88.3-.29.54-.63.7-1.02.16-.39.24-.8.22-1.22,0-.84-.31-1.66-.86-2.3Z"/>
</svg>