<?xml version="1.0" encoding="UTF-8"?>
<svg id="Layer_1" xmlns="http://www.w3.org/2000/svg" version="1.1" viewBox="0 0 2560 448">
  <!-- Generator: Adobe Illustrator 29.5.0, SVG Export Plug-In . SVG Version: 2.1.0 Build 137)  -->
  <defs>
    <style>
      .st0 {
        fill: #ed2823;
      }
    </style>
  </defs>
  <path class="st0" d="M2560,392c-1.2-.27-4.82.68-5.02-.58-1.35-8.6,1.04-20.43,0-29.42l-12.52,30.04c-1.81.11-3.52.09-4.38-1.63l-11.09-27.41v29h-6v-38c2.05.42,7.59-.69,8.86.14s8.71,24.35,10.15,27.86c1.45-.1,1.53-1.53,2.02-2.47,2.33-4.54,7.39-22.47,9.45-24.55,1.84-1.87,5.99-.7,8.53-.97v38Z"/>
  <path class="st0" d="M1030.79,51.29c118.62-7.66,179.07,87.4,168.2,197.2-9.57,96.7-79.34,157.28-177.48,146.49-184.77-20.31-183.2-331.27,9.28-343.69ZM1029.79,103.29c-70.9,6.82-84.53,86.14-78.79,144.2,4.69,47.46,27.97,92.32,80.51,96.49,87.71,6.95,110.64-70.56,103.48-143.48-6.08-61.89-38.71-103.61-105.2-97.21Z"/>
  <path class="st0" d="M2186,392h-69c-.13-1.45-.72-2.79-1.45-4.03-19.33-32.99-38.25-73.69-59.73-104.29-7.21-10.27-19.67-22.69-33.31-22.69h-32.5v131h-60V55c44.12,2.46,92.84-4.67,136.18,3.32,55.13,10.15,90.41,51.13,86.86,108.23-2.14,34.59-21.42,62.31-51.03,78.97-2.08,1.17-10.5,3.95-10.02,5.97.19.81,11.47,6.89,14.01,9,9.71,8.1,17.62,21.1,24.16,31.84l55.83,99.67ZM1990,211c27.09-1.18,63.19,5.11,85.47-14.03,21.11-18.13,22.19-56.75,2.06-76-22.34-21.35-59.34-14.84-87.53-15.97v106Z"/>
  <path class="st0" d="M603,55c35.5,1.28,72.17-1.69,107.54-.04,54.63,2.55,105.03,27.14,114.17,85.83,7.12,45.72-11.67,82.74-51.04,105.38-1.69.97-7.8,3.21-8.21,3.79-2.5,3.51,1.63,2.97,3.93,4.15,10.69,5.48,17.89,14.69,24.84,24.18l64.78,113.72h-69c-14.22-25.56-28.14-51.38-42.83-76.67-10.47-18.03-27.15-54.33-51.67-54.33h-32.5v129.5c0,.11-1.39,1.5-1.5,1.5h-58.5V55ZM663,211c32.2-.89,78.06,6.79,95.82-27.68,8.53-16.55,7.98-40.24-3-55.64-20.54-28.83-62.04-21.69-92.82-22.68v106Z"/>
  <path class="st0" d="M1539,368.5c-21.61,12.04-47.31,20.32-71.79,24.21-112.44,17.86-203.14-35.78-208.25-155.17-6.1-142.48,116.08-222.43,247.31-172.31,2.24.86,17.06,7.1,17.58,7.91,1.47,2.29-13.58,46.14-16.34,51.83-58.75-36.61-146.71-31.55-174.25,40.78-17.17,45.09-14.13,116.93,22.22,152.28,30.04,29.21,86.96,34.11,123.53,15.47v-74.5h-51l15-49h96v158.5Z"/>
  <path class="st0" d="M1843,55l-16,50h-128.5c-.11,0-1.5,1.39-1.5,1.5v88.5h129v50h-127.5c-.11,0-1.5,1.39-1.5,1.5v94c0,.11,1.39,1.5,1.5,1.5h145.5v50h-208V55h207Z"/>
  <path class="st0" d="M2421,61v56c-29.83-11.5-92.57-25.71-117.39.11-9.28,9.65-11.46,25.81-6.1,37.89,9.32,21.05,53.12,38.28,73.17,49.83,45.28,26.08,81.64,58.38,66.05,116.39-22.28,82.89-131.77,85.44-197.96,60.53-3.36-1.26-17.52-6.12-17.79-9.25l15.05-48.5c8.37,3.36,16.15,7.81,24.74,10.75,30.21,10.35,92.16,19.14,109.79-15.71,14.77-29.18-7.13-48.67-29.87-62.21-33.17-19.76-76.59-34.77-98.48-68.52-17.92-27.64-17.19-63.64.39-91.22,36.33-56.98,121.31-51.26,178.42-36.08Z"/>
  <path class="st0" d="M240,359.01c56.98-23.51,109.27-67.06,139.17-121.34,25.13-45.64,30.61-89.84,19.52-140.86-1.13-5.2-3.62-10.53-3.19-15.81,42.62,50.05,59.39,117.34,48.19,182.18-14.33,82.91-78.46,141.92-165.45,116.08-10.56-3.14-28.31-10.29-36.58-17.42-1.03-.89-2.09-.98-1.66-2.83Z"/>
  <path class="st0" d="M87.99,240c29.52,72.13,95.94,141.9,173.83,159.68,37.93,8.66,63.46,3.4,100.15-4.22,1.09-.23,3.38-1.17,4.03.03-49.74,42.63-117.65,59.45-182.18,48.19-86.01-15-144.84-83.1-113.83-172.2,2.88-8.28,9.57-23.32,15.18-29.82.89-1.03.98-2.09,2.83-1.66Z"/>
  <path class="st0" d="M2514.5,354c1.45.45,2.03,4.45,1.5,5-.42.43-10.1-.31-12,0v33h-6v-33h-12.01s0-5,0-5c5.61,0,24.82-1.13,28.5,0Z"/>
  <path class="st0" d="M242,0c55.77,4.12,117.92,34.62,137.27,90.23,11.65,33.48,5.95,74.63-11.1,105.44-1.31,2.38-6.13,11.35-8.66,11.34-38.07-89.08-124.35-169.66-227.05-164.05-17.78.97-35.23,5.48-52.44,9.55,25.19-21.68,57.34-38.36,89.77-46.22,11-2.67,23.98-5.46,35.21-6.29,10.38-.77,26.62-.77,37,0Z"/>
  <path class="st0" d="M0,206c3.99-55.27,33.58-117.71,88.74-137.76,32.7-11.89,74.47-6.66,104.94,9.59,2.31,1.23,13.34,7.56,13.34,9.66C118.03,125.67,37.36,211.84,42.96,314.54c.97,17.78,5.48,35.23,9.55,52.44-21.65-25.05-38.5-57.43-46.22-89.77-2.63-11-5.43-23.99-6.29-35.21-.78-10.05-.73-25.92,0-36Z"/>
</svg>